<svg version="1.1" viewBox="0.0 0.0 960.0 960.0" fill="none" stroke="none" stroke-linecap="square" stroke-miterlimit="10" xmlns:xlink="http://www.w3.org/1999/xlink" xmlns="http://www.w3.org/2000/svg"><clipPath id="p.0"><path d="m0 0l960.0 0l0 960.0l-960.0 0l0 -960.0z" clip-rule="nonzero"/></clipPath><g clip-path="url(#p.0)"><path fill="#000000" fill-opacity="0.0" d="m0 0l960.0 0l0 960.0l-960.0 0z" fill-rule="evenodd"/><path fill="#674ea7" d="m0 480.0c0 -265.09668 214.90332 -480.0 480.0 -480.0c127.303894 0 249.3938 50.571285 339.41125 140.58875c90.017456 90.017456 140.58875 212.10733 140.58875 339.41125c0 265.09668 -214.90332 480.0 -480.0 480.0c-265.09668 0 -480.0 -214.90332 -480.0 -480.0z" fill-rule="evenodd"/><path stroke="#351c75" stroke-width="8.0" stroke-linejoin="round" stroke-linecap="butt" d="m0 480.0c0 -265.09668 214.90332 -480.0 480.0 -480.0c127.303894 0 249.3938 50.571285 339.41125 140.58875c90.017456 90.017456 140.58875 212.10733 140.58875 339.41125c0 265.09668 -214.90332 480.0 -480.0 480.0c-265.09668 0 -480.0 -214.90332 -480.0 -480.0z" fill-rule="evenodd"/><path fill="#d9d2e9" d="m367.73175 305.10236l302.5197 174.89764l-302.5197 174.89764z" fill-rule="evenodd"/><path stroke="#351c75" stroke-width="16.0" stroke-linejoin="round" stroke-linecap="butt" d="m367.73175 305.10236l302.5197 174.89764l-302.5197 174.89764z" fill-rule="evenodd"/></g></svg>